<svg width="46" height="46" viewBox="0 0 46 46" fill="none" xmlns="http://www.w3.org/2000/svg">
<circle cx="23" cy="23" r="23" fill="#F5F5F5"/>
<path d="M25.2334 13.0287C24.1838 12.329 22.8163 12.329 21.7666 13.0287L14.4749 17.8899C13.6055 18.4694 13.0833 19.4452 13.0833 20.49V31.8751C13.0833 32.4503 13.5497 32.9167 14.125 32.9167H18.2917C18.867 32.9167 19.3333 32.4503 19.3333 31.8751V23.5417H27.6667V31.8751C27.6667 32.4503 28.133 32.9167 28.7083 32.9167H32.875C33.4503 32.9167 33.9167 32.4503 33.9167 31.8751V20.49C33.9167 19.4452 33.3945 18.4694 32.5251 17.8899L25.2334 13.0287Z" fill="#000814"/>
<path d="M21.4167 24.5834C20.8414 24.5834 20.375 25.0498 20.375 25.6251C20.375 26.2003 20.8414 26.6667 21.4167 26.6667H25.5833C26.1586 26.6667 26.625 26.2003 26.625 25.6251C26.625 25.0498 26.1586 24.5834 25.5833 24.5834H21.4167Z" fill="#000814"/>
<path d="M21.4167 27.7084C20.8414 27.7084 20.375 28.1748 20.375 28.7501C20.375 29.3253 20.8414 29.7917 21.4167 29.7917H25.5833C26.1586 29.7917 26.625 29.3253 26.625 28.7501C26.625 28.1748 26.1586 27.7084 25.5833 27.7084H21.4167Z" fill="#000814"/>
<path d="M21.4167 30.8334C20.8414 30.8334 20.375 31.2998 20.375 31.8751C20.375 32.4503 20.8414 32.9167 21.4167 32.9167H25.5833C26.1586 32.9167 26.625 32.4503 26.625 31.8751C26.625 31.2998 26.1586 30.8334 25.5833 30.8334H21.4167Z" fill="#000814"/>
</svg>
