<svg width="46" height="46" viewBox="0 0 46 46" fill="none" xmlns="http://www.w3.org/2000/svg">
<circle cx="23" cy="23" r="23" fill="#F5F5F5"/>
<path fill-rule="evenodd" clip-rule="evenodd" d="M15.2015 13.6978C15.6155 12.2489 16.9398 11.25 18.4467 11.25H28.5523C30.0592 11.25 31.3835 12.2489 31.7975 13.6978L33.5831 19.9475C34.2978 20.5663 34.75 21.4804 34.75 22.5V27C34.75 27.9996 34.3155 28.8976 33.625 29.5156V31.5C33.625 32.7426 32.6176 33.75 31.375 33.75H30.25C29.0074 33.75 28 32.7426 28 31.5V30.375H19V31.5C19 32.7426 17.9926 33.75 16.75 33.75H15.625C14.3824 33.75 13.375 32.7426 13.375 31.5V29.5156C12.6845 28.8976 12.25 27.9996 12.25 27V22.5C12.25 21.481 12.7016 20.5675 13.4156 19.9486L15.2015 13.6978ZM29.634 14.3159L31.0081 19.125H15.9909L17.365 14.3159C17.503 13.833 17.9444 13.5 18.4467 13.5H21.25C21.25 14.1213 21.7537 14.625 22.375 14.625H24.625C25.2463 14.625 25.75 14.1213 25.75 13.5H28.5523C29.0546 13.5 29.496 13.833 29.634 14.3159ZM20.125 24.75C20.125 25.9926 19.1176 27 17.875 27C16.6324 27 15.625 25.9926 15.625 24.75C15.625 23.5074 16.6324 22.5 17.875 22.5C19.1176 22.5 20.125 23.5074 20.125 24.75ZM29.125 27C30.3676 27 31.375 25.9926 31.375 24.75C31.375 23.5074 30.3676 22.5 29.125 22.5C27.8824 22.5 26.875 23.5074 26.875 24.75C26.875 25.9926 27.8824 27 29.125 27Z" fill="#000814"/>
</svg>
