<svg width="46" height="46" viewBox="0 0 46 46" fill="none" xmlns="http://www.w3.org/2000/svg">
<circle cx="23" cy="23" r="23" fill="#F5F5F5"/>
<path fill-rule="evenodd" clip-rule="evenodd" d="M35 22.6667C35 13.7778 32.882 12 23 12C13.118 12 11 13.8827 11 22.6667C11 28.3307 12.0002 32 16.5002 32C18.9051 32 19.6205 33.1424 20.2866 34.2061C20.867 35.1329 21.41 36 23.0002 36C24.5906 36 25.1336 35.1329 25.714 34.2061C26.3801 33.1424 27.0954 32 29.5002 32C34.0002 32 35 28.4445 35 22.6667ZM19 24C19.5523 24 20 23.5523 20 23C20 22.4477 19.5523 22 19 22C18.4477 22 18 22.4477 18 23C18 23.5523 18.4477 24 19 24ZM24 23C24 23.5523 23.5523 24 23 24C22.4477 24 22 23.5523 22 23C22 22.4477 22.4477 22 23 22C23.5523 22 24 22.4477 24 23ZM27 24C27.5523 24 28 23.5523 28 23C28 22.4477 27.5523 22 27 22C26.4477 22 26 22.4477 26 23C26 23.5523 26.4477 24 27 24Z" fill="black"/>
</svg>
