<svg width="46" height="46" viewBox="0 0 46 46" fill="none" xmlns="http://www.w3.org/2000/svg">
<circle cx="23" cy="23" r="23" fill="#F5F5F5"/>
<path fill-rule="evenodd" clip-rule="evenodd" d="M35.5 16.5C35.5 19.8137 32.8137 22.5 29.5 22.5C26.1863 22.5 23.5 19.8137 23.5 16.5C23.5 13.1863 26.1863 10.5 29.5 10.5C32.8137 10.5 35.5 13.1863 35.5 16.5ZM32.7117 17.2385C32.6189 17.6423 32.2164 17.8942 31.8128 17.8014L26.851 16.6607C26.4474 16.568 26.1954 16.1654 26.2881 15.7618C26.381 15.3581 26.7834 15.106 27.1871 15.1989L32.1488 16.3396C32.5525 16.4324 32.8046 16.8349 32.7117 17.2385Z" fill="black"/>
<path d="M16.5837 12.9339C16.098 11.785 14.474 11.6691 13.8216 12.7368L8.71961 21.0861C8.13107 22.0493 8.7891 23.2789 9.93693 23.3608L18.8367 23.9958C19.9845 24.0777 20.8196 22.9547 20.3815 21.9182L16.5837 12.9339Z" fill="black"/>
<path fill-rule="evenodd" clip-rule="evenodd" d="M30.5387 33.2694C32.7911 32.2191 33.7656 29.5417 32.7152 27.2892C31.6649 25.0368 28.9875 24.0623 26.7351 25.1126L18.5783 28.9162C16.3259 29.9665 15.3514 32.6439 16.4017 34.8964C17.4521 37.1488 20.1294 38.1233 22.3819 37.0729L30.5387 33.2694ZM26.4569 33.5176L29.9047 31.9099C31.4063 31.2097 32.056 29.4247 31.3558 27.9232C30.6556 26.4215 28.8707 25.7719 27.369 26.4721L23.9213 28.0798L26.4569 33.5176Z" fill="black"/>
</svg>
